<svg width="24" height="24" viewBox="0 0 24 24" fill="none" xmlns="http://www.w3.org/2000/svg">
<path d="M4.75 6.75C4.75 5.64543 5.64543 4.75 6.75 4.75H17.25C18.3546 4.75 19.25 5.64543 19.25 6.75V14.25C19.25 15.3546 18.3546 16.25 17.25 16.25H14.625L12 19.25L9.375 16.25H6.75C5.64543 16.25 4.75 15.3546 4.75 14.25V6.75Z" stroke="#141414" stroke-width="1.5" stroke-linecap="round" stroke-linejoin="round"/>
<path d="M12 8V10" stroke="#141414" stroke-width="2" stroke-linecap="round" stroke-linejoin="round"/>
<path d="M12.5 13C12.5 13.2761 12.2761 13.5 12 13.5C11.7239 13.5 11.5 13.2761 11.5 13C11.5 12.7239 11.7239 12.5 12 12.5C12.2761 12.5 12.5 12.7239 12.5 13Z" stroke="#141414" stroke-linecap="round" stroke-linejoin="round"/>
</svg>
