<svg width="24" height="24" viewBox="0 0 24 24" fill="none" xmlns="http://www.w3.org/2000/svg">
<path d="M7.5 8.5C7.91421 8.5 8.25 8.16421 8.25 7.75C8.25 7.33579 7.91421 7 7.5 7V8.5ZM9.75 4C9.33579 4 9 4.33579 9 4.75C9 5.16421 9.33579 5.5 9.75 5.5V4ZM15.2564 5.36538L15.9487 5.07692L15.9487 5.07692L15.2564 5.36538ZM15.9936 7.13462L15.3013 7.42308L15.3013 7.42308L15.9936 7.13462ZM18.5 15.25C18.5 15.6642 18.8358 16 19.25 16C19.6642 16 20 15.6642 20 15.25H18.5ZM10.4028 11.0766C10.7212 10.8118 10.7647 10.3389 10.4999 10.0204C10.235 9.70197 9.76213 9.6585 9.44365 9.92335L10.4028 11.0766ZM15.0766 15.5563C15.3415 15.2379 15.298 14.765 14.9796 14.5001C14.6611 14.2353 14.1882 14.2788 13.9234 14.5972L15.0766 15.5563ZM5.28033 4.21967C4.98744 3.92678 4.51256 3.92678 4.21967 4.21967C3.92678 4.51256 3.92678 4.98744 4.21967 5.28033L5.28033 4.21967ZM16.8358 18.5H6.75V20H16.8358V18.5ZM5.5 17.25V9.75H4V17.25H5.5ZM6.75 8.5H7.5V7H6.75V8.5ZM16.9167 8.5H17.25V7H16.9167V8.5ZM9.75 5.5H14.3333V4H9.75V5.5ZM14.5641 5.65385L15.3013 7.42308L16.6859 6.84615L15.9487 5.07692L14.5641 5.65385ZM18.5 9.75V15.25H20V9.75H18.5ZM14.3333 5.5C14.4343 5.5 14.5253 5.56068 14.5641 5.65385L15.9487 5.07692C15.677 4.42479 15.0398 4 14.3333 4V5.5ZM6.75 18.5C6.05964 18.5 5.5 17.9404 5.5 17.25H4C4 18.7688 5.23122 20 6.75 20V18.5ZM17.25 8.5C17.9404 8.5 18.5 9.05964 18.5 9.75H20C20 8.23122 18.7688 7 17.25 7V8.5ZM16.9167 7C16.8157 7 16.7247 6.93932 16.6859 6.84615L15.3013 7.42308C15.573 8.07521 16.2102 8.5 16.9167 8.5V7ZM5.5 9.75C5.5 9.05964 6.05964 8.5 6.75 8.5V7C5.23122 7 4 8.23122 4 9.75H5.5ZM12 15.5C10.6193 15.5 9.5 14.3807 9.5 13H8C8 15.2091 9.79086 17 12 17V15.5ZM9.5 13C9.5 12.227 9.84992 11.5364 10.4028 11.0766L9.44365 9.92335C8.56281 10.6559 8 11.7626 8 13H9.5ZM13.9234 14.5972C13.4636 15.1501 12.773 15.5 12 15.5V17C13.2374 17 14.3441 16.4372 15.0766 15.5563L13.9234 14.5972ZM18.0732 17.0126L5.28033 4.21967L4.21967 5.28033L17.0126 18.0732L18.0732 17.0126ZM16.8358 20C18.3949 20 19.1757 18.115 18.0732 17.0126L17.0126 18.0732C17.1701 18.2307 17.0585 18.5 16.8358 18.5V20Z" fill="#141414"/>
</svg>
