<svg width="24" height="24" viewBox="0 0 24 24" fill="none" xmlns="http://www.w3.org/2000/svg">
<path d="M16.2433 10.759L15.4944 10.8008C15.5155 11.177 15.8122 11.4791 16.1879 11.5069L16.2433 10.759ZM7.75672 10.759L7.81207 11.5069C8.18775 11.4791 8.48452 11.177 8.50555 10.8008L7.75672 10.759ZM8 16.5C6.61929 16.5 5.5 15.3807 5.5 14H4C4 16.2091 5.79086 18 8 18V16.5ZM16 16.5H8V18H16V16.5ZM18.5 14C18.5 15.3807 17.3807 16.5 16 16.5V18C18.2091 18 20 16.2091 20 14H18.5ZM16.1879 11.5069C17.4805 11.6026 18.5 12.6826 18.5 14H20C20 11.8912 18.3687 10.1642 16.2986 10.011L16.1879 11.5069ZM12 7.5C13.8661 7.5 15.3916 8.96085 15.4944 10.8008L16.9921 10.7171C16.8451 8.08695 14.6665 6 12 6V7.5ZM8.50555 10.8008C8.60842 8.96085 10.1339 7.5 12 7.5V6C9.33349 6 7.15494 8.08695 7.00789 10.7171L8.50555 10.8008ZM5.5 14C5.5 12.6826 6.51952 11.6026 7.81207 11.5069L7.70137 10.011C5.63132 10.1642 4 11.8912 4 14H5.5Z" fill="#141414"/>
</svg>
