<svg width="24" height="24" viewBox="0 0 24 24" fill="none" xmlns="http://www.w3.org/2000/svg">
<path d="M4.75 5.75C4.75 5.19772 5.19772 4.75 5.75 4.75H9.25C9.80228 4.75 10.25 5.19772 10.25 5.75V9.25C10.25 9.80228 9.80228 10.25 9.25 10.25H5.75C5.19772 10.25 4.75 9.80228 4.75 9.25V5.75Z" stroke="#141414" stroke-width="1.5" stroke-linecap="round" stroke-linejoin="round"/>
<path d="M4.75 14.75C4.75 14.1977 5.19772 13.75 5.75 13.75H9.25C9.80228 13.75 10.25 14.1977 10.25 14.75V18.25C10.25 18.8023 9.80228 19.25 9.25 19.25H5.75C5.19772 19.25 4.75 18.8023 4.75 18.25V14.75Z" stroke="#141414" stroke-width="1.5" stroke-linecap="round" stroke-linejoin="round"/>
<path d="M13.75 5.75C13.75 5.19772 14.1977 4.75 14.75 4.75H18.25C18.8023 4.75 19.25 5.19772 19.25 5.75V9.25C19.25 9.80228 18.8023 10.25 18.25 10.25H14.75C14.1977 10.25 13.75 9.80228 13.75 9.25V5.75Z" stroke="#141414" stroke-width="1.5" stroke-linecap="round" stroke-linejoin="round"/>
<path d="M13.75 14.75C13.75 14.1977 14.1977 13.75 14.75 13.75H18.25C18.8023 13.75 19.25 14.1977 19.25 14.75V18.25C19.25 18.8023 18.8023 19.25 18.25 19.25H14.75C14.1977 19.25 13.75 18.8023 13.75 18.25V14.75Z" stroke="#141414" stroke-width="1.5" stroke-linecap="round" stroke-linejoin="round"/>
</svg>
