<svg width="24" height="24" viewBox="0 0 24 24" fill="none" xmlns="http://www.w3.org/2000/svg">
<path d="M10.8463 9.90372L11.3766 10.434C11.5569 10.2537 11.6333 9.99419 11.5793 9.74498L10.8463 9.90372ZM4.75 16L4.21967 15.4697C4.07902 15.6103 4 15.8011 4 16H4.75ZM4.75 19.25H4C4 19.6642 4.33579 20 4.75 20V19.25ZM8 19.25V20C8.19891 20 8.38968 19.921 8.53033 19.7803L8 19.25ZM8.75 18.5L9.28033 19.0303C9.42098 18.8897 9.5 18.6989 9.5 18.5H8.75ZM8.75 16.75V16C8.33579 16 8 16.3358 8 16.75H8.75ZM10.5 16.75V17.5C10.6989 17.5 10.8897 17.421 11.0303 17.2803L10.5 16.75ZM11.75 15.5L12.2803 16.0303C12.421 15.8897 12.5 15.6989 12.5 15.5H11.75ZM11.75 13.75V13C11.3358 13 11 13.3358 11 13.75H11.75ZM13.5 13.75V14.5C13.6989 14.5 13.8897 14.421 14.0303 14.2803L13.5 13.75ZM14.0963 13.1537L14.255 12.4207C14.0058 12.3667 13.7463 12.4431 13.566 12.6234L14.0963 13.1537ZM18.5 9C18.5 10.933 16.933 12.5 15 12.5V14C17.7614 14 20 11.7614 20 9H18.5ZM15 5.5C16.933 5.5 18.5 7.067 18.5 9H20C20 6.23858 17.7614 4 15 4V5.5ZM11.5 9C11.5 7.067 13.067 5.5 15 5.5V4C12.2386 4 10 6.23858 10 9H11.5ZM11.5793 9.74498C11.5274 9.50557 11.5 9.25642 11.5 9H10C10 9.36382 10.039 9.71938 10.1133 10.0624L11.5793 9.74498ZM5.28033 16.5303L11.3766 10.434L10.316 9.37339L4.21967 15.4697L5.28033 16.5303ZM5.5 19.25V16H4V19.25H5.5ZM8 18.5H4.75V20H8V18.5ZM8.21967 17.9697L7.46967 18.7197L8.53033 19.7803L9.28033 19.0303L8.21967 17.9697ZM8 16.75V18.5H9.5V16.75H8ZM10.5 16H8.75V17.5H10.5V16ZM11.2197 14.9697L9.96967 16.2197L11.0303 17.2803L12.2803 16.0303L11.2197 14.9697ZM11 13.75V15.5H12.5V13.75H11ZM13.5 13H11.75V14.5H13.5V13ZM13.566 12.6234L12.9697 13.2197L14.0303 14.2803L14.6266 13.684L13.566 12.6234ZM15 12.5C14.7436 12.5 14.4944 12.4726 14.255 12.4207L13.9376 13.8867C14.2806 13.961 14.6362 14 15 14V12.5Z" fill="#141414"/>
<circle cx="16" cy="8" r="1" fill="#141414"/>
</svg>
