<svg width="24" height="24" viewBox="0 0 24 24" fill="none" xmlns="http://www.w3.org/2000/svg">
<path d="M9.25 8C9.25 9.24264 8.24264 10.25 7 10.25C5.75736 10.25 4.75 9.24264 4.75 8C4.75 6.75736 5.75736 5.75 7 5.75C8.24264 5.75 9.25 6.75736 9.25 8Z" stroke="#141414" stroke-width="1.5" stroke-linecap="round" stroke-linejoin="round"/>
<path d="M9.25 16C9.25 17.2426 8.24264 18.25 7 18.25C5.75736 18.25 4.75 17.2426 4.75 16C4.75 14.7574 5.75736 13.75 7 13.75C8.24264 13.75 9.25 14.7574 9.25 16Z" stroke="#141414" stroke-width="1.5" stroke-linecap="round" stroke-linejoin="round"/>
<path d="M9 15L19.25 6.75" stroke="#141414" stroke-width="1.5" stroke-linecap="round" stroke-linejoin="round"/>
<path d="M9 9L19.25 16.25" stroke="#141414" stroke-width="1.5" stroke-linecap="round" stroke-linejoin="round"/>
</svg>
