<svg width="24" height="24" viewBox="0 0 24 24" fill="none" xmlns="http://www.w3.org/2000/svg">
<path d="M13.2062 6.24511L13.9492 6.14263L13.2062 6.24511ZM15.2412 7.09419L14.7912 6.49419L15.2412 7.09419ZM14.105 7.18905L14.406 6.5021L14.105 7.18905ZM16.8559 6.95642L16.3256 7.48675L16.8559 6.95642ZM17.1365 8.4512L16.5365 8.0012L17.1365 8.4512ZM17.0436 7.1441L16.5132 7.67443L17.0436 7.1441ZM16.8109 9.89496L16.124 10.196L16.8109 9.89496ZM16.9058 8.75875L17.5058 9.20875L16.9058 8.75875ZM17.7549 10.7938L17.6524 11.5367L17.7549 10.7938ZM16.8808 10.0622L16.1838 10.3391L16.8808 10.0622ZM18.3866 10.8809L18.2842 11.6239L18.3866 10.8809ZM18.3866 13.1191L18.4891 13.8621L18.3866 13.1191ZM16.8808 13.9378L16.1838 13.6609L16.8808 13.9378ZM17.7549 13.2062L17.6524 12.4633L17.7549 13.2062ZM16.9058 15.2412L16.3058 15.6912L16.9058 15.2412ZM16.811 14.105L17.4979 14.406L16.811 14.105ZM15.5488 17.1365L15.0988 17.7365L15.5488 17.1365ZM14.105 16.8109L14.406 17.4979L14.105 16.8109ZM15.2412 16.9058L15.6912 16.3058L15.2412 16.9058ZM13.9378 16.8808L13.6609 16.1838L13.9378 16.8808ZM13.1191 18.3866L12.3761 18.2842L13.1191 18.3866ZM10.0622 16.8808L10.3391 16.1838L10.0622 16.8808ZM10.7938 17.7549L10.0508 17.8574L10.7938 17.7549ZM8.75876 16.9058L9.20876 17.5058L8.75876 16.9058ZM9.89496 16.811L10.196 16.124L9.89496 16.811ZM7.14408 17.0436L7.67441 16.5133L7.14408 17.0436ZM8.45118 17.1365L8.90118 17.7365L8.45118 17.1365ZM6.86351 15.5488L7.46351 15.9988L6.86351 15.5488ZM6.9564 16.8559L7.48674 16.3256L6.9564 16.8559ZM7.18905 14.105L6.5021 14.406L7.18905 14.105ZM7.09419 15.2412L6.49419 14.7912L7.09419 15.2412ZM6.24511 13.2062L6.14263 13.9492L6.24511 13.2062ZM7.11922 10.0622L6.42223 9.78521L7.11922 10.0622ZM6.24511 10.7938L6.34759 11.5367L6.24511 10.7938ZM7.09419 8.75876L7.6942 8.30876L7.09419 8.75876ZM6.95641 7.14408L6.42608 6.61375L6.95641 7.14408ZM8.45119 6.86351L8.00119 7.46351L8.45119 6.86351ZM10.7938 6.24511L10.0508 6.14263L10.7938 6.24511ZM13.1191 5.61336L12.3761 5.71584L13.1191 5.61336ZM10.8809 5.61336L11.6239 5.71584L10.8809 5.61336ZM11.8715 5.5H12.1285V4H11.8715V5.5ZM11.5367 6.34759L11.6239 5.71584L10.138 5.51088L10.0508 6.14263L11.5367 6.34759ZM10.196 7.876C10.2433 7.85527 10.291 7.83533 10.3391 7.8162L9.78521 6.42223C9.72091 6.44778 9.65715 6.47441 9.59397 6.5021L10.196 7.876ZM9.20876 6.49419L8.90119 6.26351L8.00119 7.46351L8.30876 7.69419L9.20876 6.49419ZM6.61375 6.42607L6.42608 6.61375L7.48674 7.67441L7.67441 7.48674L6.61375 6.42607ZM6.26351 8.90118L6.49419 9.20876L7.6942 8.30876L7.46351 8.00118L6.26351 8.90118ZM7.81621 10.3391C7.83533 10.291 7.85527 10.2433 7.876 10.196L6.5021 9.59396C6.47442 9.65715 6.44778 9.7209 6.42223 9.78521L7.81621 10.3391ZM5.71584 11.6239L6.34759 11.5367L6.14263 10.0508L5.51088 10.1379L5.71584 11.6239ZM5.5 12.1285V11.8715H4V12.1285H5.5ZM6.34759 12.4633L5.71584 12.3761L5.51088 13.862L6.14263 13.9492L6.34759 12.4633ZM7.876 13.804C7.85527 13.7567 7.83533 13.709 7.8162 13.6609L6.42223 14.2148C6.44778 14.2791 6.47441 14.3428 6.5021 14.406L7.876 13.804ZM7.46351 15.9988L7.69419 15.6912L6.49419 14.7912L6.26351 15.0988L7.46351 15.9988ZM7.67441 16.5133L7.48674 16.3256L6.42607 17.3862L6.61375 17.5739L7.67441 16.5133ZM8.30876 16.3058L8.00118 16.5365L8.90118 17.7365L9.20876 17.5058L8.30876 16.3058ZM10.3391 16.1838C10.291 16.1647 10.2433 16.1447 10.196 16.124L9.59396 17.4979C9.65715 17.5256 9.7209 17.5522 9.78521 17.5778L10.3391 16.1838ZM11.6239 18.2842L11.5367 17.6524L10.0508 17.8574L10.138 18.4891L11.6239 18.2842ZM12.1285 18.5H11.8715V20H12.1285V18.5ZM12.4633 17.6524L12.3761 18.2842L13.8621 18.4891L13.9492 17.8574L12.4633 17.6524ZM13.804 16.124C13.7567 16.1447 13.709 16.1647 13.6609 16.1838L14.2148 17.5778C14.2791 17.5522 14.3429 17.5256 14.406 17.4979L13.804 16.124ZM14.7912 17.5058L15.0988 17.7365L15.9988 16.5365L15.6912 16.3058L14.7912 17.5058ZM17.3862 17.5739L17.5739 17.3862L16.5132 16.3256L16.3256 16.5132L17.3862 17.5739ZM17.7365 15.0988L17.5058 14.7912L16.3058 15.6912L16.5365 15.9988L17.7365 15.0988ZM16.1838 13.6609C16.1647 13.709 16.1447 13.7567 16.124 13.804L17.4979 14.406C17.5256 14.3429 17.5522 14.2791 17.5778 14.2148L16.1838 13.6609ZM18.2842 12.3761L17.6524 12.4633L17.8574 13.9492L18.4891 13.8621L18.2842 12.3761ZM18.5 11.8715V12.1285H20V11.8715H18.5ZM17.6524 11.5367L18.2842 11.6239L18.4891 10.1379L17.8574 10.0508L17.6524 11.5367ZM16.124 10.196C16.1447 10.2433 16.1647 10.291 16.1838 10.3391L17.5778 9.78521C17.5522 9.7209 17.5256 9.65714 17.4979 9.59396L16.124 10.196ZM16.5365 8.0012L16.3058 8.30875L17.5058 9.20875L17.7365 8.9012L16.5365 8.0012ZM16.3256 7.48675L16.5132 7.67443L17.5739 6.61377L17.3862 6.42609L16.3256 7.48675ZM15.6912 7.69419L15.9988 7.46353L15.0988 6.26353L14.7912 6.49419L15.6912 7.69419ZM13.6609 7.8162C13.709 7.83533 13.7567 7.85527 13.804 7.876L14.406 6.5021C14.3429 6.47441 14.2791 6.44778 14.2148 6.42223L13.6609 7.8162ZM12.3761 5.71584L12.4633 6.34759L13.9492 6.14263L13.8621 5.51088L12.3761 5.71584ZM14.2148 6.42223C14.0359 6.35116 13.9608 6.227 13.9492 6.14263L12.4633 6.34759C12.5628 7.06929 13.0835 7.58679 13.6609 7.8162L14.2148 6.42223ZM14.7912 6.49419C14.7231 6.54532 14.5821 6.57924 14.406 6.5021L13.804 7.876C14.3736 8.12556 15.1082 8.13149 15.6912 7.69419L14.7912 6.49419ZM17.3862 6.42609C16.7704 5.81028 15.7955 5.741 15.0988 6.26353L15.9988 7.46353C16.0983 7.38888 16.2376 7.39878 16.3256 7.48675L17.3862 6.42609ZM17.7365 8.9012C18.259 8.20449 18.1897 7.22958 17.5739 6.61377L16.5132 7.67443C16.6012 7.7624 16.6111 7.90167 16.5365 8.0012L17.7365 8.9012ZM17.4979 9.59396C17.4208 9.41792 17.4547 9.27692 17.5058 9.20875L16.3058 8.30875C15.8685 8.89182 15.8744 9.6264 16.124 10.196L17.4979 9.59396ZM17.8574 10.0508C17.773 10.0392 17.6488 9.96406 17.5778 9.78521L16.1838 10.3391C16.4132 10.9165 16.9307 11.4372 17.6524 11.5367L17.8574 10.0508ZM20 11.8715C20 10.9974 19.355 10.2574 18.4891 10.1379L18.2842 11.6239C18.4079 11.6409 18.5 11.7467 18.5 11.8715H20ZM18.4891 13.8621C19.355 13.7426 20 13.0026 20 12.1285H18.5C18.5 12.2533 18.4079 12.3591 18.2842 12.3761L18.4891 13.8621ZM17.5778 14.2148C17.6488 14.0359 17.773 13.9608 17.8574 13.9492L17.6524 12.4633C16.9307 12.5628 16.4132 13.0835 16.1838 13.6609L17.5778 14.2148ZM17.5058 14.7912C17.4547 14.7231 17.4208 14.5821 17.4979 14.406L16.124 13.804C15.8744 14.3736 15.8685 15.1082 16.3058 15.6912L17.5058 14.7912ZM17.5739 17.3862C18.1897 16.7704 18.259 15.7955 17.7365 15.0988L16.5365 15.9988C16.6111 16.0983 16.6012 16.2376 16.5132 16.3256L17.5739 17.3862ZM15.0988 17.7365C15.7955 18.259 16.7704 18.1897 17.3862 17.5739L16.3256 16.5132C16.2376 16.6012 16.0983 16.6111 15.9988 16.5365L15.0988 17.7365ZM14.406 17.4979C14.5821 17.4208 14.7231 17.4547 14.7912 17.5058L15.6912 16.3058C15.1082 15.8685 14.3736 15.8744 13.804 16.124L14.406 17.4979ZM13.9492 17.8574C13.9608 17.773 14.0359 17.6488 14.2148 17.5778L13.6609 16.1838C13.0835 16.4132 12.5628 16.9307 12.4633 17.6524L13.9492 17.8574ZM12.1285 20C13.0026 20 13.7426 19.355 13.8621 18.4891L12.3761 18.2842C12.3591 18.4079 12.2533 18.5 12.1285 18.5V20ZM10.138 18.4891C10.2574 19.355 10.9974 20 11.8715 20V18.5C11.7467 18.5 11.6409 18.4079 11.6239 18.2842L10.138 18.4891ZM9.78521 17.5778C9.96406 17.6488 10.0392 17.773 10.0508 17.8574L11.5367 17.6524C11.4372 16.9307 10.9165 16.4132 10.3391 16.1838L9.78521 17.5778ZM9.20876 17.5058C9.27692 17.4547 9.41792 17.4208 9.59396 17.4979L10.196 16.124C9.6264 15.8744 8.89182 15.8685 8.30876 16.3058L9.20876 17.5058ZM6.61375 17.5739C7.22956 18.1897 8.20447 18.259 8.90118 17.7365L8.00118 16.5365C7.90165 16.6111 7.76238 16.6012 7.67441 16.5133L6.61375 17.5739ZM6.26351 15.0988C5.74098 15.7955 5.81026 16.7704 6.42607 17.3862L7.48674 16.3256C7.39876 16.2376 7.38886 16.0983 7.46351 15.9988L6.26351 15.0988ZM6.5021 14.406C6.57923 14.5821 6.54532 14.7231 6.49419 14.7912L7.69419 15.6912C8.13149 15.1082 8.12556 14.3736 7.876 13.804L6.5021 14.406ZM6.14263 13.9492C6.227 13.9608 6.35116 14.0359 6.42223 14.2148L7.8162 13.6609C7.58679 13.0835 7.06929 12.5628 6.34759 12.4633L6.14263 13.9492ZM4 12.1285C4 13.0026 4.64498 13.7426 5.51088 13.862L5.71584 12.3761C5.59214 12.3591 5.5 12.2533 5.5 12.1285H4ZM5.51088 10.1379C4.64498 10.2574 4 10.9974 4 11.8715H5.5C5.5 11.7467 5.59214 11.6409 5.71584 11.6239L5.51088 10.1379ZM6.42223 9.78521C6.35116 9.96406 6.227 10.0392 6.14263 10.0508L6.34759 11.5367C7.06929 11.4372 7.58679 10.9165 7.81621 10.3391L6.42223 9.78521ZM6.49419 9.20876C6.54532 9.27692 6.57924 9.41793 6.5021 9.59396L7.876 10.196C8.12556 9.6264 8.13149 8.89182 7.6942 8.30876L6.49419 9.20876ZM6.42608 6.61375C5.81027 7.22956 5.74098 8.20447 6.26351 8.90118L7.46351 8.00118C7.38887 7.90165 7.39877 7.76238 7.48674 7.67441L6.42608 6.61375ZM8.90119 6.26351C8.20448 5.74098 7.22956 5.81026 6.61375 6.42607L7.67441 7.48674C7.76238 7.39876 7.90166 7.38886 8.00119 7.46351L8.90119 6.26351ZM9.59397 6.5021C9.41793 6.57923 9.27693 6.54532 9.20876 6.49419L8.30876 7.69419C8.89183 8.13149 9.62641 8.12556 10.196 7.876L9.59397 6.5021ZM10.0508 6.14263C10.0392 6.227 9.96406 6.35116 9.78521 6.42223L10.3391 7.8162C10.9165 7.58679 11.4372 7.06929 11.5367 6.34759L10.0508 6.14263ZM12.1285 5.5C12.2533 5.5 12.3591 5.59214 12.3761 5.71584L13.8621 5.51088C13.7426 4.64498 13.0026 4 12.1285 4V5.5ZM11.8715 4C10.9974 4 10.2574 4.64498 10.138 5.51088L11.6239 5.71584C11.6409 5.59214 11.7467 5.5 11.8715 5.5V4Z" fill="#141414"/>
<circle cx="12" cy="12" r="1.25" stroke="#141414" stroke-width="1.5" stroke-linecap="round" stroke-linejoin="round"/>
</svg>
