<svg width="24" height="24" viewBox="0 0 24 24" fill="none" xmlns="http://www.w3.org/2000/svg">
<path d="M19.25 10.25L13.75 4.75" stroke="#141414" stroke-width="1.5" stroke-linecap="round" stroke-linejoin="round"/>
<path d="M17.75 19.2502H18.25C18.8023 19.2502 19.25 18.8025 19.25 18.2502V15.75C19.25 15.1977 18.8023 14.75 18.25 14.75H17.75C17.1977 14.75 16.75 15.1977 16.75 15.75V18.2502C16.75 18.8025 17.1977 19.2502 17.75 19.2502Z" stroke="#141414" stroke-width="1.5" stroke-linecap="round" stroke-linejoin="round"/>
<path d="M11.75 19.2502H12.25C12.8023 19.2502 13.25 18.8025 13.25 18.2502V12.75C13.25 12.1977 12.8023 11.75 12.25 11.75H11.75C11.1977 11.75 10.75 12.1977 10.75 12.75V18.2502C10.75 18.8025 11.1977 19.2502 11.75 19.2502Z" stroke="#141414" stroke-width="1.5" stroke-linecap="round" stroke-linejoin="round"/>
<path d="M5.75 19.2502H6.25C6.80229 19.2502 7.25 18.8025 7.25 18.2502V5.75C7.25 5.19772 6.80229 4.75 6.25 4.75H5.75C5.19772 4.75 4.75 5.19772 4.75 5.75V18.2502C4.75 18.8025 5.19772 19.2502 5.75 19.2502Z" stroke="#141414" stroke-width="1.5" stroke-linecap="round" stroke-linejoin="round"/>
<path d="M19.25 6.75V10.25H15.75" stroke="#141414" stroke-width="1.5" stroke-linecap="round" stroke-linejoin="round"/>
</svg>
